<svg width="22" height="20" viewBox="0 0 22 20" fill="none" xmlns="http://www.w3.org/2000/svg">
<path d="M19.8846 1.66667H17.7692V2.91667C17.7692 3.14583 17.5788 3.33333 17.3462 3.33333H16.5C16.2673 3.33333 16.0769 3.14583 16.0769 2.91667V1.66667H5.92308V2.91667C5.92308 3.14583 5.73269 3.33333 5.5 3.33333H4.65385C4.42115 3.33333 4.23077 3.14583 4.23077 2.91667V1.66667H2.11538C0.951923 1.66667 0 2.60417 0 3.75V17.9167C0 19.0625 0.951923 20 2.11538 20H19.8846C21.0481 20 22 19.0625 22 17.9167V3.75C22 2.60417 21.0481 1.66667 19.8846 1.66667ZM20.3077 17.2917C20.3077 17.8646 19.8317 18.3333 19.25 18.3333H2.75C2.16827 18.3333 1.69231 17.8646 1.69231 17.2917V7.91667C1.69231 7.6875 1.88269 7.5 2.11538 7.5H19.8846C20.1173 7.5 20.3077 7.6875 20.3077 7.91667V17.2917ZM5.92308 0.416667C5.92308 0.1875 5.73269 0 5.5 0H4.65385C4.42115 0 4.23077 0.1875 4.23077 0.416667V1.66667H5.92308V0.416667ZM17.7692 0.416667C17.7692 0.1875 17.5788 0 17.3462 0H16.5C16.2673 0 16.0769 0.1875 16.0769 0.416667V1.66667H17.7692V0.416667Z" fill="black" fill-opacity="0.66"/>
</svg>
