<svg width="36" height="36" viewBox="0 0 36 36" fill="none" xmlns="http://www.w3.org/2000/svg">
<path d="M27.8537 11.9554C25.9094 7.53947 21.605 4.69723 16.8261 4.69568C10.9214 4.69723 5.8474 9.09787 4.93559 14.9682C1.93134 16.3905 0.00154687 19.4001 0 22.6957C0.000773437 27.4418 3.86255 31.3036 8.60871 31.3044H26.2174C31.6109 31.3036 35.9992 26.9152 36 21.5218C35.9985 16.7435 32.586 12.7549 27.8537 11.9554ZM14.6861 10.9664C12.5942 11.7728 11.0803 13.6513 10.7356 15.8692C10.6455 16.4485 10.1456 16.8627 9.57691 16.8627C9.51659 16.8627 9.45619 16.8581 9.39502 16.8489C8.75454 16.7488 8.31586 16.1489 8.41521 15.5084C8.88912 12.4628 10.9678 9.88341 13.8423 8.77598C14.4445 8.54445 15.1263 8.84398 15.3593 9.44937C15.5926 10.0539 15.2915 10.7333 14.6861 10.9664Z" fill="black"/>
</svg>
