<svg width="35" height="35" viewBox="0 0 35 35" fill="none" xmlns="http://www.w3.org/2000/svg">
<path d="M17.5 31.3542C23.4809 31.3542 28.4375 26.8876 28.4375 21.25C28.4375 17.7268 26.6397 14.1641 24.6067 11.2424C22.5601 8.30104 20.2001 5.90364 18.926 4.6926C18.1217 3.92823 16.8783 3.92823 16.074 4.69261C14.7999 5.90364 12.4398 8.30104 10.3933 11.2424C8.36036 14.1641 6.5625 17.7268 6.5625 21.25C6.5625 26.8876 11.5191 31.3542 17.5 31.3542Z" stroke="#222222" stroke-width="1.45833"/>
<path d="M17.5 26.25C16.734 26.25 15.9755 26.0991 15.2677 25.8059C14.56 25.5128 13.9169 25.0832 13.3752 24.5414C12.8336 23.9998 12.4039 23.3567 12.1107 22.6489C11.8176 21.9412 11.6667 21.1827 11.6667 20.4167" stroke="#222222" stroke-width="1.45833" stroke-linecap="round"/>
</svg>
