<svg width="32" height="32" viewBox="0 0 32 32" fill="none" xmlns="http://www.w3.org/2000/svg">
<g clip-path="url(#clip0_12_239)">
<path d="M13 30H9C8.46979 29.9993 7.96149 29.7883 7.58658 29.4134C7.21166 29.0385 7.00071 28.5302 7 28V20H9V28H13V20H15V28C14.9993 28.5302 14.7883 29.0385 14.4134 29.4134C14.0385 29.7883 13.5302 29.9993 13 30Z" fill="#F97316"/>
<path d="M25 20H23.25L21 29.031L18.792 20H17L19.5 30H22.5L25 20Z" fill="#F97316"/>
<path d="M17 2H15V7H17V2Z" fill="#F97316"/>
<path d="M25.1924 5.39356L21.6865 8.89939L23.1006 10.3135L26.6064 6.80763L25.1924 5.39356Z" fill="#F97316"/>
<path d="M30 15H25V17H30V15Z" fill="#F97316"/>
<path d="M7 15H2V17H7V15Z" fill="#F97316"/>
<path d="M6.80763 5.39354L5.39355 6.80762L8.89939 10.3135L10.3135 8.89938L6.80763 5.39354Z" fill="#F97316"/>
<path d="M22 17H20V16C20 14.9391 19.5786 13.9217 18.8284 13.1716C18.0783 12.4214 17.0609 12 16 12C14.9391 12 13.9217 12.4214 13.1716 13.1716C12.4214 13.9217 12 14.9391 12 16V17H10V16C10 14.4087 10.6321 12.8826 11.7574 11.7574C12.8826 10.6321 14.4087 10 16 10C17.5913 10 19.1174 10.6321 20.2426 11.7574C21.3679 12.8826 22 14.4087 22 16V17Z" fill="#F97316"/>
</g>
<defs>
<clipPath id="clip0_12_239">
<rect width="32" height="32" fill="white"/>
</clipPath>
</defs>
</svg>
