<svg width="140" height="140" viewBox="0 0 140 140" fill="none" xmlns="http://www.w3.org/2000/svg">
<path d="M70 0C71.6877 0 73.3064 0.670452 74.4998 1.86387C75.6932 3.05728 76.3636 4.6759 76.3636 6.36364V19.0909C76.3636 20.7787 75.6932 22.3973 74.4998 23.5907C73.3064 24.7841 71.6877 25.4545 70 25.4545C68.3123 25.4545 66.6936 24.7841 65.5002 23.5907C64.3068 22.3973 63.6364 20.7787 63.6364 19.0909V6.36364C63.6364 4.6759 64.3068 3.05728 65.5002 1.86387C66.6936 0.670452 68.3123 0 70 0ZM70 114.545C71.6877 114.545 73.3064 115.216 74.4998 116.409C75.6932 117.603 76.3636 119.221 76.3636 120.909V133.636C76.3636 135.324 75.6932 136.943 74.4998 138.136C73.3064 139.33 71.6877 140 70 140C68.3123 140 66.6936 139.33 65.5002 138.136C64.3068 136.943 63.6364 135.324 63.6364 133.636V120.909C63.6364 119.221 64.3068 117.603 65.5002 116.409C66.6936 115.216 68.3123 114.545 70 114.545ZM0 70C0 68.3123 0.670452 66.6936 1.86387 65.5002C3.05728 64.3068 4.6759 63.6364 6.36364 63.6364H19.0909C20.7787 63.6364 22.3973 64.3068 23.5907 65.5002C24.7841 66.6936 25.4545 68.3123 25.4545 70C25.4545 71.6877 24.7841 73.3064 23.5907 74.4998C22.3973 75.6932 20.7787 76.3636 19.0909 76.3636H6.36364C4.6759 76.3636 3.05728 75.6932 1.86387 74.4998C0.670452 73.3064 0 71.6877 0 70ZM114.545 70C114.545 68.3123 115.216 66.6936 116.409 65.5002C117.603 64.3068 119.221 63.6364 120.909 63.6364H133.636C135.324 63.6364 136.943 64.3068 138.136 65.5002C139.33 66.6936 140 68.3123 140 70C140 71.6877 139.33 73.3064 138.136 74.4998C136.943 75.6932 135.324 76.3636 133.636 76.3636H120.909C119.221 76.3636 117.603 75.6932 116.409 74.4998C115.216 73.3064 114.545 71.6877 114.545 70ZM38.4809 101.519C39.6739 102.712 40.3441 104.331 40.3441 106.018C40.3441 107.706 39.6739 109.324 38.4809 110.517L29.5082 119.49C28.9212 120.098 28.219 120.583 27.4426 120.916C26.6662 121.25 25.8311 121.425 24.9862 121.433C24.1412 121.44 23.3033 121.279 22.5212 120.959C21.7391 120.639 21.0286 120.166 20.4311 119.569C19.8336 118.971 19.3611 118.261 19.0411 117.479C18.7212 116.697 18.5602 115.859 18.5675 115.014C18.5748 114.169 18.7504 113.334 19.0839 112.557C19.4174 111.781 19.9022 111.079 20.51 110.492L29.4827 101.519C30.6761 100.326 32.2944 99.6559 33.9818 99.6559C35.6692 99.6559 37.2876 100.326 38.4809 101.519ZM119.49 20.51C120.683 21.7034 121.353 23.3217 121.353 25.0091C121.353 26.6965 120.683 28.3148 119.49 29.5082L110.517 38.4809C109.93 39.0887 109.228 39.5735 108.452 39.907C107.675 40.2405 106.84 40.4161 105.995 40.4234C105.15 40.4308 104.312 40.2697 103.53 39.9498C102.748 39.6298 102.038 39.1573 101.44 38.5598C100.843 37.9623 100.37 37.2518 100.05 36.4697C99.7303 35.6876 99.5692 34.8497 99.5766 34.0047C99.5839 33.1598 99.7595 32.3247 100.093 31.5483C100.427 30.7719 100.911 30.0698 101.519 29.4827L110.492 20.51C111.685 19.317 113.304 18.6468 114.991 18.6468C116.678 18.6468 118.297 19.317 119.49 20.51ZM101.519 101.519C102.712 100.326 104.331 99.6559 106.018 99.6559C107.706 99.6559 109.324 100.326 110.517 101.519L119.49 110.492C120.098 111.079 120.583 111.781 120.916 112.557C121.25 113.334 121.425 114.169 121.433 115.014C121.44 115.859 121.279 116.697 120.959 117.479C120.639 118.261 120.166 118.971 119.569 119.569C118.971 120.166 118.261 120.639 117.479 120.959C116.697 121.279 115.859 121.44 115.014 121.433C114.169 121.425 113.334 121.25 112.557 120.916C111.781 120.583 111.079 120.098 110.492 119.49L101.519 110.517C100.326 109.324 99.6559 107.706 99.6559 106.018C99.6559 104.331 100.326 102.712 101.519 101.519ZM20.51 20.51C21.7034 19.317 23.3217 18.6468 25.0091 18.6468C26.6965 18.6468 28.3148 19.317 29.5082 20.51L38.4809 29.4827C39.6401 30.6829 40.2815 32.2904 40.267 33.9589C40.2525 35.6274 39.5833 37.2235 38.4034 38.4034C37.2235 39.5833 35.6274 40.2525 33.9589 40.267C32.2904 40.2815 30.6829 39.6401 29.4827 38.4809L20.51 29.5082C19.317 28.3148 18.6468 26.6965 18.6468 25.0091C18.6468 23.3217 19.317 21.7034 20.51 20.51ZM70 38.1818C61.5613 38.1818 53.4682 41.5341 47.5011 47.5011C41.5341 53.4682 38.1818 61.5613 38.1818 70C38.1818 78.4387 41.5341 86.5318 47.5011 92.4989C53.4682 98.4659 61.5613 101.818 70 101.818C78.4387 101.818 86.5318 98.4659 92.4989 92.4989C98.4659 86.5318 101.818 78.4387 101.818 70C101.818 61.5613 98.4659 53.4682 92.4989 47.5011C86.5318 41.5341 78.4387 38.1818 70 38.1818Z" fill="black"/>
</svg>
