<svg width="120" height="120" viewBox="0 0 120 120" fill="none" xmlns="http://www.w3.org/2000/svg">
<path d="M97.6485 73.605H97.6885C100.909 73.605 104.065 73.31 107.121 72.745L106.806 72.795C101.074 93.405 82.4691 108.285 60.3876 108.285C60.2926 108.285 60.1926 108.285 60.0975 108.285H60.1125C33.3897 108.255 11.7334 86.605 11.7084 59.89C11.8385 37.8 26.6428 19.195 46.8637 13.325L47.2088 13.24C46.6936 15.975 46.3985 19.12 46.3985 22.335V22.37C46.4235 50.66 69.3552 73.585 97.6485 73.61V73.605ZM60.0475 2.35C58.9772 0.92 57.2867 0 55.3812 0C55.1961 0 55.011 0.01 54.831 0.025H54.856C24.072 2.98 0.17005 28.62 0 59.88V59.895C0.0400117 93.07 26.9329 119.955 60.1125 120H60.1175H60.4176C91.6417 120 117.269 96.07 119.96 65.555L119.975 65.33C119.99 65.175 120 64.99 120 64.81C120 62.985 119.165 61.355 117.859 60.285L117.849 60.275C116.849 59.455 115.559 58.955 114.148 58.955C113.548 58.955 112.973 59.045 112.428 59.21L112.468 59.2L109.847 59.98C106.211 61.2 102.02 61.905 97.6685 61.905C97.6585 61.905 97.6435 61.905 97.6335 61.905C75.8121 61.88 58.132 44.205 58.1069 22.39C58.1069 22.365 58.1069 22.33 58.1069 22.3C58.1069 17.15 59.0972 12.23 60.8978 7.725L60.8027 7.99C61.0578 7.355 61.2079 6.62 61.2079 5.85C61.2079 4.525 60.7677 3.3 60.0275 2.32L60.0375 2.335L60.0475 2.35Z" fill="black"/>
</svg>
