<svg width="121" height="99" viewBox="0 0 121 99" fill="none" xmlns="http://www.w3.org/2000/svg">
<path fill-rule="evenodd" clip-rule="evenodd" d="M7.32632 58.9097C1.93392 53.3952 -0.518903 45.2972 0.091459 38.11C0.637565 31.6787 3.56618 25.185 9.48683 20.931C14.6445 17.2251 21.462 15.6516 29.6273 16.6346C33.1722 9.5974 37.8953 4.7761 43.3954 2.18083C49.8043 -0.84325 56.5792 -0.512474 62.3563 1.88739C70.5902 5.30802 77.4491 13.3108 78.7886 22.8172C80.0107 23.1371 81.2077 23.5305 82.3731 23.9908C94.2728 28.691 104.047 41.0948 102.489 55.1069C113.54 57.782 119.895 67.0121 120.075 76.4665C120.179 81.9133 118.225 87.4612 113.959 91.639C109.663 95.8468 103.458 98.2501 95.8039 98.2501H33.7124C14.2932 98.2501 4.23171 81.2469 5.57763 66.4941C5.81228 63.9221 6.38814 61.3605 7.32632 58.9097ZM13.6015 49.404C14.6446 48.4041 15.793 47.4718 17.0496 46.6219C23.4225 42.3115 31.9778 40.5124 42.4531 41.9234C46.9108 33.1687 52.8741 27.355 59.6746 24.3085C62.2335 23.1621 64.8409 22.4398 67.4375 22.0886C66.0609 17.6377 62.5926 13.8066 58.1681 11.9688C54.8653 10.5966 51.3305 10.5074 48.0539 12.0536C44.7574 13.6091 41.0361 17.151 38.1146 24.3335C37.0141 27.0392 34.1217 28.5537 31.2964 27.9653C23.535 26.3487 18.704 27.7507 15.8568 29.7964C12.9728 31.8686 11.2953 35.19 10.9689 39.0337C10.6399 42.9092 11.6263 46.5946 13.6015 49.404ZM50.854 49.7228C54.6131 40.9174 59.5103 36.3441 64.1374 34.2712C68.7791 32.192 73.7866 32.3366 78.3629 34.1441C87.939 37.9267 93.9633 47.9887 90.8816 57.335C89.6098 61.1919 92.4399 65.1366 96.4294 65.2616C105.01 65.5301 109.059 71.3449 109.16 76.675C109.212 79.3839 108.253 81.9466 106.32 83.8401C104.417 85.7041 101.137 87.3334 95.8039 87.3334H33.7124C22.1906 87.3334 15.5435 77.4135 16.4492 67.4859C16.8845 62.7136 19.1057 58.4103 23.1659 55.6642C27.2335 52.9132 33.9007 51.2249 44.126 53.2674C46.8988 53.8215 49.7301 52.3554 50.854 49.7228Z" fill="#0F0F0F" stroke="black" stroke-width="0.00024"/>
</svg>
