<svg width="96" height="86" viewBox="0 0 96 86" fill="none" xmlns="http://www.w3.org/2000/svg">
<path d="M70.1516 28.2504C61.1266 28.2504 52.1016 24.4504 45.9266 17.3254C38.3266 8.77543 25.5016 6.87543 16.0016 13.5254L7.92656 18.7504C5.55156 20.1754 2.70156 19.7004 1.27656 17.8004C-0.148444 15.4254 0.326557 12.5754 2.22656 11.1504L10.7766 5.45043C24.0766 -3.57457 42.1266 -1.19957 53.0516 11.1504C61.1266 20.1754 74.9016 21.6004 84.4016 14.0004L87.7266 11.6254C89.6266 10.2004 92.9516 10.2004 94.3766 12.5754C95.8016 14.4754 95.8016 17.8004 93.4266 19.2254L90.5766 21.1254C84.4016 25.8754 77.2766 28.2504 70.1516 28.2504Z" fill="black"/>
<path d="M70.1516 56.7504C61.1266 56.7504 52.1016 52.9504 45.9266 45.8254C38.3266 37.2754 25.5016 35.3754 16.0016 42.0254L7.45159 47.7254C5.07659 49.1504 2.22659 48.6754 0.801589 46.3004C-0.623411 43.9254 0.32659 41.0754 2.22659 39.6504L10.7766 33.9504C24.0766 24.9254 42.1266 27.3004 53.0516 39.6504C61.1266 48.6754 74.9016 50.1004 84.4016 42.5004L87.7266 40.1254C89.6266 38.7004 92.9516 38.7004 94.3766 41.0754C95.8016 42.9754 95.8016 46.3004 93.4266 47.7254L90.5766 49.6254C84.4016 54.3754 77.2766 56.7504 70.1516 56.7504Z" fill="black"/>
<path d="M70.1516 85.2504C61.1266 85.2504 52.1016 81.4504 45.9266 74.3254C38.3266 65.7754 25.5016 63.8754 16.0016 70.5254L7.45156 76.2254C5.07656 77.6504 2.22656 77.1754 0.801562 74.8004C-0.623438 72.4254 -0.148437 69.5754 2.22656 68.1504L10.7766 62.4504C24.0766 53.4254 42.1266 55.8004 53.0516 68.1504C61.1266 77.1754 74.9016 78.6004 84.4016 71.0004L87.7266 68.6254C89.6266 67.2004 92.9516 67.2004 94.3766 69.5754C95.8016 71.4754 95.8016 74.8004 93.4266 76.2254L90.5766 78.1254C84.4016 82.8754 77.2766 85.2504 70.1516 85.2504Z" fill="black"/>
</svg>
