<svg width="130" height="102" viewBox="0 0 130 102" fill="none" xmlns="http://www.w3.org/2000/svg">
<path d="M35.7288 20.3583L31.5873 3.7483L36.9223 2.4228L41.0638 19.0273L35.7288 20.3583ZM19.7018 50.8063L19.0363 48.1388L2.42627 52.2748L3.76277 57.6153L20.3673 53.4738L19.7018 50.8063ZM24.8058 29.4883L10.6653 20.9908L7.83277 25.7098L21.9733 34.2018L24.8058 29.4883ZM59.7143 24.7968L68.2063 10.6563L63.4928 7.8238L55.0008 21.9643L59.7143 24.7968ZM127.106 73.1253C127.106 80.146 124.317 86.8791 119.352 91.8435C114.388 96.8078 107.655 99.5968 100.634 99.5968H30.5148C25.5564 99.5122 20.8296 97.4831 17.353 93.9467C13.8764 90.4103 11.9282 85.6497 11.9282 80.6905C11.9282 75.7314 13.8764 70.9708 17.353 67.4344C20.8296 63.898 25.5564 61.8689 30.5148 61.7843L30.5808 61.7898C31.0136 60.8708 31.5194 59.988 32.0933 59.1498C29.9263 57.3063 28.1957 55.0047 27.0264 52.411C25.8571 49.8174 25.2783 46.9965 25.3317 44.152C25.3852 41.3075 26.0695 38.5103 27.3354 35.9624C28.6013 33.4145 30.4171 31.1795 32.6517 29.4187C34.8864 27.6579 37.4842 26.4152 40.2574 25.7804C43.0307 25.1456 45.9104 25.1345 48.6885 25.7478C51.4666 26.3612 54.0739 27.5838 56.3221 29.3273C58.5702 31.0708 60.4033 33.2918 61.6888 35.8298C65.3929 32.4925 69.8683 30.128 74.7127 28.9491C79.5571 27.7701 84.6185 27.8136 89.4419 29.0757C94.2654 30.3377 98.6995 32.7787 102.346 36.1792C105.992 39.5797 108.736 43.833 110.331 48.5568C115.271 50.4951 119.513 53.8758 122.505 58.2588C125.497 62.6417 127.1 67.8185 127.106 73.1253ZM121.606 73.1253C121.612 68.9185 120.345 64.8083 117.971 61.3351C115.598 57.8619 112.229 55.1885 108.307 53.6663L105.947 52.7313L105.122 50.3333C103.39 45.2539 100.051 40.8764 95.6109 37.8622C91.1707 34.848 85.87 33.3609 80.5098 33.6255C75.1497 33.8901 70.0213 35.8921 65.8995 39.329C61.7777 42.7659 58.8865 47.451 57.6628 52.6763L56.3868 58.1213L50.9638 56.7463C49.8983 56.4568 48.8008 56.3016 47.6968 56.2843C45.141 56.2974 42.642 57.0391 40.493 58.4225C38.3439 59.8058 36.634 61.7734 35.5638 64.0943L34.0898 67.2898H30.1573C26.6024 67.3365 23.2118 68.7934 20.7311 71.34C18.2505 73.8867 16.8831 77.3145 16.9298 80.8693C16.9764 84.4241 18.4334 87.8148 20.98 90.2955C23.5267 92.7761 26.9544 94.1435 30.5093 94.0968H100.634C106.194 94.091 111.525 91.8796 115.457 87.948C119.389 84.0163 121.6 78.6855 121.606 73.1253ZM35.7893 55.0908C38.0409 53.1881 40.7206 51.8602 43.5984 51.2213C46.4761 50.5823 49.466 50.6513 52.3113 51.4223C53.2899 47.3937 55.0913 43.6111 57.6023 40.3123C56.9427 38.2945 55.8234 36.4575 54.3327 34.9461C52.842 33.4347 51.0206 32.2902 49.012 31.6029C47.0035 30.9156 44.8628 30.7043 42.7586 30.9855C40.6545 31.2668 38.6444 32.033 36.8869 33.2237C35.1294 34.4144 33.6725 35.9971 32.6311 37.847C31.5897 39.6969 30.9922 41.7634 30.8858 43.8836C30.7794 46.0038 31.1669 48.1197 32.0179 50.0646C32.8688 52.0095 34.1598 53.7301 35.7893 55.0908Z" fill="black" stroke="black" stroke-width="4"/>
</svg>
