<svg width="142" height="149" viewBox="0 0 142 149" fill="none" xmlns="http://www.w3.org/2000/svg">
<path d="M133.125 88.1161C133.133 83.4313 131.776 78.855 129.235 74.9959C126.693 71.1368 123.088 68.1779 118.898 66.5128C117.41 60.0458 114.05 54.2157 109.276 49.8175C104.502 45.4192 98.5467 42.6668 92.2211 41.9357C85.8956 41.2045 79.5082 42.5301 73.9299 45.7318C68.3516 48.9334 63.854 53.8552 61.0502 59.8262C57.0401 46.953 57.2452 33.0509 61.6333 20.3131C61.8917 19.6137 61.9866 18.8599 61.91 18.1144C61.8334 17.3689 61.5875 16.6534 61.1928 16.0273C60.7982 15.4012 60.2661 14.8827 59.6409 14.515C59.0158 14.1472 58.3156 13.9409 57.5987 13.9131C57.3389 13.913 57.0796 13.9372 56.8239 13.9854C42.6939 16.6084 29.9924 24.6029 21.1657 36.4291C12.3391 48.2553 8.01167 63.0767 9.01703 78.0384C10.0224 93.0001 16.2894 107.044 26.611 117.465C36.9325 127.885 50.5785 133.946 64.9206 134.479C65.6483 134.509 66.3765 134.479 67.098 134.479C75.9091 134.474 84.6026 132.367 92.5159 128.317C100.429 124.268 107.353 118.383 112.76 111.112C118.295 110.646 123.461 108.023 127.233 103.764C131.005 99.5048 133.108 93.9197 133.125 88.1161ZM65.2463 125.206C53.7473 124.781 42.754 120.16 34.1758 112.145C25.5976 104.131 19.9764 93.2291 18.2884 81.3339C16.6005 69.4387 18.9524 57.3014 24.9357 47.0298C30.9191 36.7583 40.1559 29.0015 51.0418 25.1066C47.8588 39.6373 49.1706 54.8489 54.7884 68.5506C50.7066 71.2133 47.5662 75.1937 45.843 79.8889C44.1197 84.5842 43.9075 89.7384 45.2383 94.571C46.5692 99.4036 49.3706 103.651 53.2184 106.671C57.0662 109.69 61.7507 111.317 66.5624 111.305H100.63C91.5376 120.203 79.5565 125.171 67.0998 125.206C66.4857 125.206 65.8649 125.229 65.2463 125.206ZM110.937 102.029H66.5624C63.3034 102.035 60.1559 100.789 57.7183 98.5287C55.2808 96.2679 53.7232 93.1497 53.3418 89.767C52.9603 86.3844 53.7816 82.9732 55.6495 80.1821C57.5173 77.391 60.3015 75.4146 63.4726 74.6287L66.3956 73.8997L66.8331 70.7924C67.6081 65.296 70.2485 60.274 74.2722 56.6432C78.296 53.0124 83.4349 51.0148 88.7509 51.0151C94.0669 51.0153 99.2056 53.0135 103.229 56.6447C107.252 60.276 109.892 65.2982 110.667 70.7948L111.104 73.8997L114.027 74.6287C117.198 75.4146 119.983 77.391 121.85 80.1821C123.718 82.9732 124.54 86.3844 124.158 89.767C123.777 93.1497 122.219 96.2679 119.782 98.5287C117.344 100.789 114.196 102.035 110.937 102.029Z" fill="black"/>
</svg>
