<svg width="117" height="111" viewBox="0 0 117 111" fill="none" xmlns="http://www.w3.org/2000/svg">
<path d="M84.1417 5.27922C75.2731 5.27922 67.3764 10.0324 62.2436 17.4431C58.9938 12.4773 53.8457 9.25793 48.0295 9.25793C39.2217 9.25793 31.9173 16.6231 30.505 26.2662H23.6865C13.2842 26.2662 4.87115 35.9396 4.87115 47.8757C4.87115 59.8119 13.2993 69.4853 23.6865 69.4853H84.1417C99.5857 69.4853 112.099 55.1194 112.099 37.3974C112.099 19.6451 99.5857 5.27922 84.1417 5.27922Z" fill="white" stroke="black" stroke-width="3.42108"/>
<path d="M84.1417 1.71054C75.8502 1.71054 68.0447 5.44628 62.2436 12.0673C58.4016 7.96714 53.3902 5.68925 48.0296 5.68925C38.6751 5.68925 30.6265 12.69 27.9994 22.6975H23.6866C11.5682 22.6975 1.71255 33.9958 1.71255 47.8757C1.71255 61.7557 11.5682 73.0388 23.6866 73.0388H84.1417C101.302 73.0388 115.258 57.048 115.258 37.3823C115.258 17.7013 101.302 1.71054 84.1417 1.71054ZM84.1417 65.9014H23.6866C15.0458 65.9014 8.01471 57.8073 8.01471 47.8606C8.01471 37.9138 15.0458 29.8197 23.6866 29.8197H30.5051C32.054 29.8197 33.36 28.5593 33.6182 26.8432C34.8027 18.7188 40.877 12.8114 48.0296 12.8114C52.6613 12.8114 56.9134 15.2716 59.7076 19.554C60.2998 20.45 61.211 20.9815 62.1981 20.9967C63.1244 20.9967 64.1115 20.5107 64.7189 19.6299C69.4721 12.7659 76.5336 8.83274 84.1265 8.83274C97.8091 8.83274 108.94 21.6345 108.94 37.3671C108.956 53.0997 97.8242 65.9014 84.1417 65.9014ZM21.3176 81.2392L2.6237 102.636C1.39364 104.033 1.40883 106.296 2.65407 107.678C3.26151 108.361 4.06637 108.711 4.87122 108.711C5.69126 108.711 6.49611 108.361 7.11873 107.648L25.8126 86.2506C27.0427 84.8535 27.0275 82.5908 25.7822 81.2088C24.537 79.8117 22.5324 79.8269 21.3176 81.2392ZM50.3682 81.2088C49.123 79.8269 47.1336 79.8421 45.9036 81.2392L36.5642 91.9301C35.3342 93.3272 35.3494 95.5899 36.5946 96.9718C37.202 97.6552 38.0069 98.0045 38.8118 98.0045C39.6318 98.0045 40.4366 97.6552 41.0593 96.9414L50.3986 86.2506C51.6287 84.8383 51.6135 82.5908 50.3682 81.2088ZM95.4856 81.2392L86.1463 91.9301C84.9162 93.3272 84.9314 95.5899 86.1766 96.9718C86.7841 97.6552 87.5889 98.0045 88.3938 98.0045C89.2138 98.0045 90.0187 97.6552 90.6413 96.9414L99.9806 86.2506C101.211 84.8535 101.196 82.5908 99.9503 81.2088C98.705 79.8117 96.7157 79.8269 95.4856 81.2392ZM70.9148 81.2392L52.2209 102.636C50.9909 104.033 51.006 106.296 52.2513 107.678C52.8587 108.361 53.6636 108.711 54.4684 108.711C55.2885 108.711 56.0933 108.361 56.716 107.648L75.3946 86.2506C76.6247 84.8535 76.6095 82.5908 75.3643 81.2088C74.1342 79.8117 72.1297 79.8269 70.9148 81.2392Z" fill="#211F1E" stroke="black" stroke-width="3.42108"/>
</svg>
