<svg width="122" height="111" viewBox="0 0 122 111" fill="none" xmlns="http://www.w3.org/2000/svg">
<path fill-rule="evenodd" clip-rule="evenodd" d="M28.3333 18.4167C28.3333 8.24545 36.5787 0 46.75 0C56.9211 0 65.1667 8.2454 65.1667 18.4167C65.1667 28.5879 56.9211 36.8333 46.75 36.8333H9.91667C7.56948 36.8333 5.66667 34.9305 5.66667 32.5833C5.66667 30.2361 7.56948 28.3333 9.91667 28.3333H46.75C52.2268 28.3333 56.6667 23.8935 56.6667 18.4167C56.6667 12.9398 52.2268 8.5 46.75 8.5C41.2732 8.5 36.8333 12.9398 36.8333 18.4167V20.4405C36.8333 22.7877 34.9305 24.6905 32.5833 24.6905C30.2361 24.6905 28.3333 22.7877 28.3333 20.4405V18.4167ZM73.6667 29.75C73.6667 16.4491 84.4492 5.66667 97.75 5.66667C111.051 5.66667 121.833 16.4491 121.833 29.75C121.833 43.0509 111.051 53.8333 97.75 53.8333H4.25C1.90281 53.8333 0 51.9305 0 49.5833C0 47.2362 1.90281 45.3333 4.25 45.3333H97.75C106.357 45.3333 113.333 38.3564 113.333 29.75C113.333 21.1436 106.357 14.1667 97.75 14.1667C89.1435 14.1667 82.1667 21.1436 82.1667 29.75V32.5833C82.1667 34.9305 80.2638 36.8333 77.9167 36.8333C75.5695 36.8333 73.6667 34.9305 73.6667 32.5833V29.75ZM11.3333 66.5833C11.3333 64.2362 13.2361 62.3333 15.5833 62.3333H97.75C111.051 62.3333 121.833 73.1159 121.833 86.4167C121.833 99.7175 111.051 110.5 97.75 110.5C84.4492 110.5 73.6667 99.7175 73.6667 86.4167V83.5833C73.6667 81.2362 75.5695 79.3333 77.9167 79.3333C80.2638 79.3333 82.1667 81.2362 82.1667 83.5833V86.4167C82.1667 95.0232 89.1435 102 97.75 102C106.357 102 113.333 95.0232 113.333 86.4167C113.333 77.8101 106.357 70.8333 97.75 70.8333H15.5833C13.2361 70.8333 11.3333 68.9305 11.3333 66.5833Z" fill="black"/>
</svg>
